<svg width="1920" height="600" viewBox="0 0 1920 600" fill="none" xmlns="http://www.w3.org/2000/svg">
<g clip-path="url(#clip0_7548_1759)">
<g clip-path="url(#clip1_7548_1759)">
<path d="M1935 -2H-10V108H1935V-2Z" fill="#AE8961"/>
<path d="M-10 -2H350.935C363.551 -2 376.043 -0.0859252 387.698 3.63292C399.353 7.35177 409.943 12.8026 418.863 19.6741C427.784 26.5456 434.86 34.7033 439.688 43.6814C444.515 52.6595 447 62.2822 447 72H-10V-2Z" fill="#F8AB20"/>
<path d="M1932 48.3281H-9.78125V597.619H1932V48.3281Z" fill="#E6DDD5"/>
<path d="M244.944 431.901H246.961V443.808C246.961 444.871 246.766 445.773 246.376 446.516C245.985 447.259 245.435 447.823 244.725 448.208C244.014 448.593 243.177 448.785 242.212 448.785C241.301 448.785 240.49 448.62 239.78 448.289C239.069 447.953 238.511 447.476 238.104 446.858C237.698 446.24 237.494 445.505 237.494 444.654H239.479C239.479 445.125 239.595 445.537 239.828 445.89C240.067 446.237 240.392 446.508 240.804 446.703C241.217 446.898 241.686 446.996 242.212 446.996C242.792 446.996 243.285 446.874 243.692 446.63C244.098 446.386 244.408 446.028 244.619 445.556C244.836 445.079 244.944 444.496 244.944 443.808V431.901ZM258.616 443.45V436.065H260.536V448.558H258.616V446.443H258.486C258.193 447.077 257.738 447.617 257.12 448.061C256.502 448.501 255.721 448.72 254.777 448.72C253.997 448.72 253.303 448.549 252.695 448.208C252.088 447.861 251.611 447.34 251.264 446.646C250.917 445.947 250.743 445.066 250.743 444.003V436.065H252.663V443.873C252.663 444.784 252.918 445.51 253.427 446.053C253.942 446.595 254.599 446.866 255.396 446.866C255.873 446.866 256.358 446.744 256.851 446.5C257.35 446.256 257.768 445.882 258.104 445.378C258.446 444.873 258.616 444.231 258.616 443.45ZM265.971 441.042V448.558H264.051V436.065H265.906V438.017H266.069C266.361 437.382 266.806 436.873 267.402 436.488C267.999 436.097 268.769 435.902 269.712 435.902C270.558 435.902 271.298 436.076 271.933 436.423C272.567 436.764 273.06 437.285 273.413 437.984C273.765 438.678 273.942 439.557 273.942 440.62V448.558H272.022V440.75C272.022 439.768 271.767 439.004 271.258 438.456C270.748 437.903 270.048 437.626 269.159 437.626C268.546 437.626 267.999 437.759 267.516 438.025C267.039 438.291 266.662 438.678 266.386 439.188C266.109 439.698 265.971 440.316 265.971 441.042ZM277.449 448.558V436.065H279.368V448.558H277.449ZM278.425 433.983C278.051 433.983 277.728 433.855 277.457 433.6C277.191 433.346 277.059 433.039 277.059 432.681C277.059 432.324 277.191 432.017 277.457 431.762C277.728 431.508 278.051 431.38 278.425 431.38C278.799 431.38 279.119 431.508 279.385 431.762C279.656 432.017 279.791 432.324 279.791 432.681C279.791 433.039 279.656 433.346 279.385 433.6C279.119 433.855 278.799 433.983 278.425 433.983ZM287.959 448.818C286.831 448.818 285.842 448.549 284.991 448.013C284.145 447.476 283.483 446.725 283.006 445.76C282.534 444.795 282.299 443.667 282.299 442.376C282.299 441.075 282.534 439.939 283.006 438.968C283.483 437.998 284.145 437.244 284.991 436.707C285.842 436.171 286.831 435.902 287.959 435.902C289.087 435.902 290.074 436.171 290.92 436.707C291.771 437.244 292.433 437.998 292.904 438.968C293.381 439.939 293.62 441.075 293.62 442.376C293.62 443.667 293.381 444.795 292.904 445.76C292.433 446.725 291.771 447.476 290.92 448.013C290.074 448.549 289.087 448.818 287.959 448.818ZM287.959 447.094C288.816 447.094 289.521 446.874 290.074 446.435C290.627 445.996 291.036 445.418 291.302 444.702C291.568 443.987 291.701 443.211 291.701 442.376C291.701 441.541 291.568 440.763 291.302 440.042C291.036 439.321 290.627 438.738 290.074 438.293C289.521 437.849 288.816 437.626 287.959 437.626C287.103 437.626 286.398 437.849 285.845 438.293C285.292 438.738 284.882 439.321 284.616 440.042C284.351 440.763 284.218 441.541 284.218 442.376C284.218 443.211 284.351 443.987 284.616 444.702C284.882 445.418 285.292 445.996 285.845 446.435C286.398 446.874 287.103 447.094 287.959 447.094Z" fill="#E6DDD5"/>
<path d="M1931.14 523.998H-10.2236V599.95H1931.14V523.998Z" fill="#F8AB20"/>
<path d="M298.308 524.009H-10.1429L-10.2236 524.043V600H87.5327C124.166 587.796 158.074 575.052 191.507 562.488C225.779 549.587 260.565 536.505 298.308 524.009Z" fill="#352D47"/>
<path d="M960.011 524.009C915.524 534.35 884.745 549.075 852.786 564.373C826.651 576.881 799.991 589.636 764.64 600H949.371L1018.46 524.009H960.011Z" fill="#352D47"/>
<path d="M1661.7 524.009H1377.03C1388.47 533.821 1380.78 544.906 1370.38 553.458C1366.58 556.575 1362.23 559.726 1358.02 562.77C1345.2 572.048 1331.94 581.641 1333.33 591.369C1333.74 594.278 1336.07 597.209 1339.98 600H1516.1C1548.79 587.858 1571.09 573.994 1592.68 560.575C1612.58 548.203 1633.01 535.504 1661.7 524.009Z" fill="#352D47"/>
<path d="M1829.48 563.163C1835.62 575.418 1841.93 588.01 1855.98 599.983H1931.56V524.009H1800.33C1816.25 536.736 1822.96 550.144 1829.48 563.163Z" fill="#352D47"/>
<path d="M493.68 549.727C514.011 541.253 534.553 532.69 553.935 523.991H311.664C272.295 536.932 236.126 550.498 200.542 563.877C168.421 575.957 135.846 588.195 100.817 599.983H383.972C414.124 582.872 454.553 566.032 493.68 549.727Z" fill="#352D47"/>
<path d="M806.764 524.009H742.159C669.478 541.485 622.326 565.611 573.246 590.733C567.249 593.809 561.193 596.898 555.075 600H693.674L806.764 524.009Z" fill="#352D47"/>
<path d="M1322.62 591.442C1321.17 581.247 1334.73 571.429 1347.86 561.931C1352.05 558.904 1356.37 555.782 1360.1 552.704C1370.3 544.315 1377.86 533.388 1365.85 524.009H1316.9C1265.69 536.201 1231.61 552.659 1198.47 568.683C1176.35 579.373 1153.83 590.255 1126.06 600H1328.74C1325.33 597.513 1323.22 594.553 1322.62 591.442Z" fill="#352D47"/>
<path d="M1818.82 563.472C1812.23 550.312 1805.44 536.746 1789.07 523.991H1674.3C1644.27 535.666 1623.19 548.748 1602.71 561.497C1581.75 574.534 1560.12 587.942 1528.87 599.983H1844.83C1831.14 588.043 1824.9 575.592 1818.82 563.472Z" fill="#352D47"/>
<path d="M919.955 531.143C928.098 528.536 936.477 526.152 945.091 523.991H818.181L705.081 599.966H750.507C788.109 589.534 815.95 576.211 843.206 563.163C866.393 552.079 890.378 540.601 919.955 531.143Z" fill="#352D47"/>
<path d="M673.434 540.174C690.766 534.101 708.828 528.699 727.491 524.009H566.118C545.929 533.163 524.306 542.154 502.966 551.05C463.385 567.535 424.854 583.593 395.469 600H543.153C550.038 596.534 556.831 593.076 563.534 589.625C596.715 572.644 630.926 555.106 673.434 540.174Z" fill="#352D47"/>
<path d="M1301.82 524.009H1029.45L960.324 599.966H1112.91C1142.32 589.985 1165.81 578.631 1188.87 567.485C1220.8 552.068 1253.57 536.235 1301.82 524.009Z" fill="#352D47"/>
<path d="M75.5 35C81.299 35 86 30.9705 86 26C86 21.0294 81.299 17 75.5 17C69.701 17 65 21.0294 65 26C65 30.9705 69.701 35 75.5 35Z" fill="#8C6339"/>
<path d="M147.5 35C153.299 35 158 30.9705 158 26C158 21.0294 153.299 17 147.5 17C141.701 17 137 21.0294 137 26C137 30.9705 141.701 35 147.5 35Z" fill="#8C6339"/>
<path d="M219.5 35C225.299 35 230 30.9705 230 26C230 21.0294 225.299 17 219.5 17C213.701 17 209 21.0294 209 26C209 30.9705 213.701 35 219.5 35Z" fill="#8C6339"/>
</g>
<g opacity="0.4">
<path d="M1595.4 230.738C1593.34 230.764 1591.29 230.408 1589.36 229.69C1584.73 227.933 1580.59 222.753 1581.98 217.452C1582.39 216.107 1582.97 214.818 1583.69 213.614C1584.63 211.9 1585.52 210.285 1585.47 208.486C1585.39 206.153 1583.69 204.114 1582.09 202.389C1581.57 201.822 1581.05 201.26 1580.52 200.7C1576.97 196.904 1573.29 192.982 1571.23 188.117C1568.92 182.69 1569.13 175.093 1574.02 171.077C1579.47 166.594 1587.65 168.571 1593.54 171.921C1594.03 172.199 1594.52 172.487 1595.01 172.781C1596.91 173.908 1598.88 175.077 1601.01 175.612C1603.44 176.215 1606.6 175.843 1608.18 173.651C1608.64 172.95 1609.01 172.19 1609.28 171.391C1609.5 170.759 1609.77 170.143 1610.08 169.546C1612.25 165.608 1617.12 164.455 1622.07 163.778C1627.35 163.076 1633.34 162.279 1638.75 164.408C1644.05 166.505 1648.46 172.498 1646.56 178.103C1646.05 179.412 1645.41 180.662 1644.63 181.83C1643.39 183.854 1642.21 185.768 1642.67 187.849C1643.12 189.931 1644.95 191.132 1646.86 192.437C1648.24 193.267 1649.49 194.301 1650.56 195.504C1653.35 198.991 1652.36 204.182 1650.01 207.301C1647.39 210.799 1643.19 212.712 1639.86 213.986C1637.59 214.852 1635.34 215.512 1633.17 216.147C1629.45 217.242 1625.93 218.244 1622.53 220.22C1621.6 220.745 1620.67 221.295 1619.76 221.825C1614.77 224.745 1610.05 227.503 1604.29 229.218C1601.41 230.147 1598.42 230.659 1595.4 230.738ZM1581.86 169.52C1579.27 169.439 1576.73 170.278 1574.69 171.889C1570.21 175.56 1570.04 182.643 1572.19 187.708C1574.18 192.395 1577.8 196.249 1581.29 199.977C1581.81 200.543 1582.34 201.104 1582.86 201.67C1584.59 203.537 1586.43 205.755 1586.53 208.45C1586.59 210.547 1585.59 212.351 1584.63 214.112C1583.95 215.242 1583.4 216.45 1583.01 217.709C1581.77 222.428 1585.54 227.105 1589.75 228.72C1593.56 230.167 1598.09 230.02 1604.03 228.253C1609.67 226.575 1614.34 223.849 1619.27 220.965C1620.19 220.441 1621.11 219.89 1622.05 219.35C1625.56 217.342 1629.13 216.293 1632.91 215.187C1635.07 214.553 1637.3 213.897 1639.53 213.048C1642.74 211.821 1646.74 209.996 1649.21 206.709C1651.31 203.909 1652.25 199.274 1649.79 196.223C1648.78 195.104 1647.61 194.141 1646.32 193.365C1644.3 192.002 1642.21 190.597 1641.66 188.122C1641.12 185.647 1642.45 183.44 1643.76 181.306C1644.49 180.204 1645.11 179.026 1645.59 177.793C1647.29 172.755 1643.24 167.307 1638.38 165.409C1633.23 163.38 1627.37 164.156 1622.23 164.843C1617.56 165.461 1612.97 166.526 1611.03 170.06C1610.73 170.612 1610.48 171.185 1610.28 171.774C1609.98 172.656 1609.57 173.495 1609.05 174.27C1607.18 176.86 1603.55 177.321 1600.78 176.634C1598.5 176.063 1596.46 174.857 1594.49 173.688C1594.01 173.399 1593.52 173.111 1593.04 172.833C1589.73 170.956 1585.67 169.52 1581.86 169.52Z" fill="#F8AB20"/>
<path d="M1580.8 264.955C1576.73 264.996 1572.68 264.285 1568.87 262.858C1559.79 259.429 1551.67 249.304 1554.39 238.98C1555.09 236.306 1556.48 233.816 1557.78 231.404C1559.7 227.907 1561.52 224.588 1561.4 220.85C1561.25 215.989 1557.76 211.811 1554.5 208.266C1553.45 207.134 1552.4 206.005 1551.35 204.879C1544.25 197.298 1536.9 189.459 1532.8 179.807C1528.26 169.1 1528.68 154.115 1538.26 146.251C1548.98 137.432 1565.2 141.369 1576.82 147.997C1577.8 148.552 1578.77 149.134 1579.75 149.711C1583.61 152.002 1587.61 154.367 1591.94 155.452C1596.99 156.705 1603.56 155.919 1606.87 151.326C1607.83 149.876 1608.59 148.309 1609.14 146.665C1609.58 145.42 1610.11 144.207 1610.71 143.031C1614.95 135.334 1624.58 133.069 1634.36 131.769C1644.89 130.364 1656.83 128.775 1667.55 133.001C1677.97 137.107 1686.63 148.862 1682.92 159.815C1682.04 162.384 1680.55 164.822 1679.1 167.155C1676.54 171.308 1674.13 175.235 1675.1 179.618C1676.07 184.001 1679.82 186.46 1683.78 189.145C1686.4 190.917 1689.14 192.757 1691.12 195.195C1696.55 201.975 1694.59 212.109 1689.99 218.207C1684.78 225.112 1676.5 228.908 1669.86 231.441C1665.34 233.171 1660.84 234.492 1656.48 235.766C1648.98 237.963 1641.9 240.04 1635.03 243.982C1633.15 245.059 1631.3 246.136 1629.47 247.212C1619.48 253.048 1610.07 258.563 1598.54 261.982C1591.85 263.964 1586.02 264.955 1580.8 264.955ZM1553.64 142.161C1548.27 142.161 1543.15 143.561 1538.91 147.037C1529.72 154.603 1529.37 169.058 1533.76 179.382C1537.78 188.861 1545.06 196.632 1552.11 204.145C1553.16 205.278 1554.21 206.405 1555.26 207.537C1558.65 211.208 1562.28 215.57 1562.44 220.792C1562.56 224.829 1560.59 228.416 1558.68 231.881C1557.39 234.235 1556.06 236.673 1555.39 239.222C1552.83 249.011 1560.58 258.621 1569.23 261.898C1576.98 264.845 1586.2 264.551 1598.22 260.975C1609.6 257.594 1618.98 252.109 1628.91 246.295C1630.75 245.22 1632.58 244.14 1634.48 243.06C1641.46 239.059 1648.59 236.967 1656.15 234.749C1660.49 233.48 1664.97 232.164 1669.46 230.45C1675.96 227.97 1684.07 224.258 1689.12 217.562C1693.49 211.795 1695.37 202.205 1690.27 195.84C1688.42 193.523 1685.76 191.735 1683.19 189.999C1679.22 187.325 1675.11 184.557 1674.07 179.833C1673.03 175.109 1675.64 170.747 1678.2 166.594C1679.62 164.287 1681.08 161.875 1681.91 159.442C1685.44 149.05 1677.13 137.867 1667.16 133.94C1656.67 129.813 1644.9 131.386 1634.49 132.771C1624.99 134.034 1615.62 136.21 1611.62 143.503C1611.04 144.635 1610.52 145.805 1610.09 147.006C1609.51 148.733 1608.7 150.379 1607.7 151.903C1604.1 156.889 1597.05 157.775 1591.67 156.433C1587.17 155.316 1583.11 152.904 1579.19 150.576C1578.22 150 1577.25 149.423 1576.28 148.867C1569.59 145.071 1561.38 142.161 1553.64 142.161Z" fill="#F8AB20"/>
<path d="M1580.8 264.955C1576.73 264.996 1572.68 264.285 1568.87 262.858C1559.79 259.429 1551.67 249.304 1554.39 238.98C1555.09 236.306 1556.48 233.816 1557.78 231.404C1559.7 227.907 1561.52 224.588 1561.4 220.85C1561.25 215.989 1557.76 211.811 1554.5 208.266C1553.45 207.134 1552.4 206.005 1551.35 204.879C1544.25 197.298 1536.9 189.459 1532.8 179.807C1528.26 169.1 1528.68 154.115 1538.26 146.251C1548.98 137.432 1565.2 141.369 1576.82 147.997C1577.8 148.552 1578.77 149.134 1579.75 149.711C1583.61 152.002 1587.61 154.367 1591.94 155.452C1596.99 156.705 1603.56 155.919 1606.87 151.326C1607.83 149.876 1608.59 148.309 1609.14 146.665C1609.58 145.42 1610.11 144.207 1610.71 143.031C1614.95 135.334 1624.58 133.069 1634.36 131.769C1644.89 130.364 1656.83 128.775 1667.55 133.001C1677.97 137.107 1686.63 148.862 1682.92 159.815C1682.04 162.384 1680.55 164.822 1679.1 167.155C1676.54 171.308 1674.13 175.235 1675.1 179.618C1676.07 184.001 1679.82 186.46 1683.78 189.145C1686.4 190.917 1689.14 192.757 1691.12 195.195C1696.55 201.975 1694.59 212.109 1689.99 218.207C1684.78 225.112 1676.5 228.908 1669.86 231.441C1665.34 233.171 1660.84 234.492 1656.48 235.766C1648.98 237.963 1641.9 240.04 1635.03 243.982C1633.15 245.059 1631.3 246.136 1629.47 247.212C1619.48 253.048 1610.07 258.563 1598.54 261.982C1591.85 263.964 1586.02 264.955 1580.8 264.955ZM1553.64 142.161C1548.27 142.161 1543.15 143.561 1538.91 147.037C1529.72 154.603 1529.37 169.058 1533.76 179.382C1537.78 188.861 1545.06 196.632 1552.11 204.145C1553.16 205.278 1554.21 206.405 1555.26 207.537C1558.65 211.208 1562.28 215.57 1562.44 220.792C1562.56 224.829 1560.59 228.416 1558.68 231.881C1557.39 234.235 1556.06 236.673 1555.39 239.222C1552.83 249.011 1560.58 258.621 1569.23 261.898C1576.98 264.845 1586.2 264.551 1598.22 260.975C1609.6 257.594 1618.98 252.109 1628.91 246.295C1630.75 245.22 1632.58 244.14 1634.48 243.06C1641.46 239.059 1648.59 236.967 1656.15 234.749C1660.49 233.48 1664.97 232.164 1669.46 230.45C1675.96 227.97 1684.07 224.258 1689.12 217.562C1693.49 211.795 1695.37 202.205 1690.27 195.84C1688.42 193.523 1685.76 191.735 1683.19 189.999C1679.22 187.325 1675.11 184.557 1674.07 179.833C1673.03 175.109 1675.64 170.747 1678.2 166.594C1679.62 164.287 1681.08 161.875 1681.91 159.442C1685.44 149.05 1677.13 137.867 1667.16 133.94C1656.67 129.813 1644.9 131.386 1634.49 132.771C1624.99 134.034 1615.62 136.21 1611.62 143.503C1611.04 144.635 1610.52 145.805 1610.09 147.006C1609.51 148.733 1608.7 150.379 1607.7 151.903C1604.1 156.889 1597.05 157.775 1591.67 156.433C1587.17 155.316 1583.11 152.904 1579.19 150.576C1578.22 150 1577.25 149.423 1576.28 148.867C1569.59 145.071 1561.38 142.161 1553.64 142.161Z" fill="#F8AB20"/>
<path d="M1565.78 300.147C1559.64 300.212 1553.54 299.146 1547.78 297.001C1534.15 291.82 1521.93 276.605 1525.99 261.059C1527.04 257.038 1529.14 253.273 1531.11 249.634C1534.04 244.297 1536.81 239.258 1536.63 233.501C1536.41 226.035 1531.08 219.654 1526.1 214.264C1524.53 212.55 1522.92 210.841 1521.32 209.126C1510.57 197.654 1499.45 185.794 1493.26 171.203C1489.6 162.639 1488.26 153.268 1489.35 144.022C1490.61 134.207 1494.79 126.117 1501.45 120.638C1517.58 107.357 1542.06 113.298 1559.59 123.307C1561.07 124.156 1562.57 125.047 1564.02 125.928C1569.88 129.41 1575.94 133.012 1582.58 134.658C1590.31 136.582 1600.41 135.361 1605.5 128.298C1607.04 126.164 1608.01 123.626 1608.96 121.173C1609.63 119.297 1610.43 117.47 1611.36 115.704C1617.72 104.138 1632.25 100.73 1647.01 98.7636C1662.94 96.6664 1680.99 94.2388 1697.18 100.62C1712.86 106.791 1725.9 124.46 1720.31 140.924C1719 144.793 1716.74 148.474 1714.54 152.034C1710.64 158.378 1706.95 164.376 1708.45 171.124C1709.92 177.772 1715.65 181.61 1721.72 185.726C1725.7 188.41 1729.81 191.184 1732.74 194.849C1740.87 205.015 1737.92 220.236 1731.02 229.396C1723.15 239.814 1710.65 245.539 1700.61 249.367C1693.76 251.988 1686.94 253.986 1680.34 255.921C1668.96 259.255 1658.21 262.407 1647.77 268.394C1644.92 270.03 1642.08 271.687 1639.33 273.291C1624.21 282.131 1609.93 290.483 1592.53 295.653C1582.48 298.652 1573.66 300.147 1565.78 300.147ZM1524.6 114.016C1516.41 114.016 1508.57 116.16 1502.12 121.466C1488.09 133.001 1487.52 155.022 1494.22 170.815C1500.34 185.233 1511.39 197.03 1522.08 208.434C1523.69 210.147 1525.29 211.859 1526.87 213.572C1531.98 219.104 1537.44 225.663 1537.68 233.496C1537.86 239.536 1534.9 244.942 1532.03 250.169C1530.06 253.75 1528.03 257.457 1527.01 261.347C1523.09 276.332 1534.94 291.023 1548.16 296.046C1559.96 300.535 1573.98 300.089 1592.27 294.652C1609.57 289.519 1623.78 281.198 1638.85 272.395C1641.59 270.785 1644.44 269.128 1647.29 267.487C1657.84 261.442 1668.64 258.27 1680.08 254.904C1686.66 252.974 1693.46 250.982 1700.27 248.381C1710.16 244.601 1722.51 238.944 1730.2 228.756C1736.87 219.911 1739.75 205.246 1731.93 195.494C1729.1 191.95 1725.05 189.202 1721.14 186.581C1715.17 182.554 1708.99 178.391 1707.43 171.334C1705.86 164.172 1709.81 157.702 1713.65 151.467C1715.81 147.96 1718.04 144.326 1719.31 140.572C1724.7 124.675 1712.02 107.577 1696.77 101.579C1680.83 95.2874 1662.92 97.6836 1647.11 99.786C1632.63 101.716 1618.39 105.029 1612.25 116.197C1611.37 117.925 1610.61 119.708 1609.96 121.534C1608.99 124.051 1607.99 126.652 1606.37 128.875C1600.99 136.336 1590.43 137.647 1582.36 135.644C1575.54 133.95 1569.44 130.311 1563.48 126.793C1562.04 125.933 1560.54 125.047 1559.06 124.203C1548.91 118.441 1536.39 114.016 1524.6 114.016Z" fill="#F8AB20"/>
<path d="M1797.56 194.304C1793.09 188.731 1786.82 184.505 1780.78 180.415C1771.45 174.123 1762.63 168.183 1760.36 157.911C1758.05 147.483 1763.72 138.266 1769.71 128.508C1773.05 123.076 1776.5 117.461 1778.5 111.578C1786.99 86.5527 1767.14 59.6712 1743.28 50.2807C1741.1 49.4209 1738.91 48.6711 1736.68 48.0105H1732.65C1736.12 48.8656 1739.54 49.9498 1742.86 51.256C1766.27 60.4786 1785.76 86.7781 1777.47 111.237C1775.51 117.005 1772.1 122.578 1768.79 127.958C1762.95 137.463 1756.91 147.294 1759.3 158.137C1761.67 168.822 1770.65 174.873 1780.16 181.285C1786.16 185.328 1792.37 189.512 1796.73 194.959C1808.76 209.986 1804.34 232.563 1794.11 246.169C1782.29 261.83 1763.38 270.486 1748.22 276.275C1737.79 280.254 1727.38 283.306 1717.32 286.237C1699.84 291.359 1683.33 296.199 1667.23 305.437C1662.86 307.938 1658.51 310.476 1654.31 312.935C1631.24 326.41 1609.47 339.15 1583.01 347.015C1554.98 355.346 1533.49 356.023 1515.37 349.144C1495.04 341.421 1476.83 318.807 1482.86 295.748C1484.44 289.755 1487.55 284.077 1490.57 278.582C1494.94 270.623 1499.48 262.391 1499.18 253.226C1498.82 241.35 1490.49 231.373 1482.72 222.947C1480.29 220.326 1477.8 217.657 1475.38 215.082C1459.02 197.623 1442.11 179.571 1432.72 157.476C1422.44 133.253 1423.29 99.4402 1444.88 81.687C1454.8 73.5183 1466.85 70.2308 1479.45 70.2308C1497.52 70.2308 1516.71 77.0102 1532.29 85.8973C1534.55 87.1871 1536.83 88.545 1539.04 89.8611C1548.09 95.2353 1557.44 100.788 1567.79 103.362C1580.05 106.408 1596.07 104.411 1604.23 93.1223C1606.69 89.7195 1608.21 85.7557 1609.69 81.9282C1610.7 79.1161 1611.9 76.3748 1613.28 73.7227C1622.72 56.5515 1644.59 51.45 1666.81 48.4929L1670.52 48H1662.75C1641.64 51.0934 1621.48 56.6616 1612.36 73.2194C1610.95 75.9104 1609.73 78.6939 1608.69 81.5507C1607.24 85.3205 1605.74 89.2162 1603.36 92.5088C1595.5 103.415 1579.94 105.307 1568.03 102.345C1557.83 99.8073 1548.54 94.2915 1539.56 88.9592C1537.35 87.6432 1535.05 86.28 1532.79 84.9849C1506.05 69.738 1468.76 60.6516 1444.18 80.8744C1434.06 89.2162 1427.69 101.517 1425.78 116.459C1424.04 130.034 1426.15 144.746 1431.73 157.88C1441.17 180.148 1458.16 198.252 1474.58 215.796C1476.99 218.37 1479.49 221.039 1481.92 223.66C1489.57 231.944 1497.75 241.744 1498.11 253.258C1498.37 262.134 1494.13 269.878 1489.62 278.073C1486.58 283.626 1483.42 289.367 1481.83 295.48C1479.05 306.077 1481.25 317.701 1488.02 328.208C1494.5 338.15 1503.92 345.813 1514.98 350.119C1523.33 353.265 1532.36 354.88 1542.4 354.88C1554.43 354.88 1567.89 352.599 1583.3 348.022C1609.87 340.12 1631.71 327.359 1654.82 313.847C1659.02 311.393 1663.36 308.856 1667.73 306.355C1683.72 297.184 1700.18 292.361 1717.6 287.254C1722.64 285.775 1727.76 284.271 1732.94 282.64C1738.11 281.009 1743.34 279.242 1748.57 277.245C1763.86 271.404 1782.95 262.664 1794.92 246.793C1800.67 239.137 1804.14 230.01 1804.92 220.467C1805.7 210.348 1803.16 201.298 1797.56 194.304Z" fill="#F8AB20"/>
<path d="M1879.72 193.622C1873.32 185.631 1864.31 179.554 1855.6 173.698C1842.13 164.622 1829.41 156.049 1826.12 141.19C1822.78 126.096 1830.95 112.794 1839.61 98.7212C1844.4 90.9194 1849.36 82.8503 1852.22 74.4036C1855.08 65.926 1855.82 56.8758 1854.37 48.0465H1853.32C1854.77 56.7609 1854.05 65.6983 1851.22 74.068C1848.4 82.4046 1843.47 90.4161 1838.71 98.1864C1829.94 112.453 1821.66 125.928 1825.08 141.437C1828.46 156.721 1841.33 165.408 1854.96 174.605C1863.61 180.435 1872.55 186.465 1878.85 194.329C1896.23 216.041 1889.86 248.643 1875.04 268.294C1858.01 290.871 1830.76 303.344 1808.92 311.681C1793.91 317.417 1778.93 321.805 1764.45 326.052C1739.31 333.424 1715.56 340.382 1692.42 353.657C1686.12 357.254 1679.89 360.909 1673.85 364.437C1640.66 383.837 1609.31 402.188 1571.21 413.487C1530.84 425.493 1499.86 426.463 1473.75 416.543C1444.38 405.391 1418.12 372.748 1426.83 339.469C1429.09 330.824 1433.58 322.634 1437.93 314.717C1444.22 303.292 1450.69 291.479 1450.29 278.35C1449.76 261.352 1437.83 247.028 1426.69 234.937C1423.21 231.162 1419.62 227.33 1416.15 223.628C1392.6 198.461 1368.25 172.497 1354.73 140.666C1342.7 112.353 1341.26 74.8912 1357.76 48.0884H1356.51C1350.68 57.6885 1346.86 68.9822 1345.24 81.5919C1342.75 101.086 1345.77 122.216 1353.79 141.075C1367.38 173.058 1391.79 199.137 1415.41 224.341C1418.88 228.043 1422.46 231.875 1425.94 235.645C1436.96 247.6 1448.78 261.745 1449.29 278.382C1449.68 291.222 1443.55 302.39 1437.06 314.213C1432.68 322.188 1428.15 330.43 1425.86 339.202C1421.89 354.407 1425.04 371.044 1434.77 386.107C1443.85 400.2 1457.94 411.662 1473.44 417.566C1485.42 422.117 1498.4 424.382 1512.82 424.382C1530.12 424.382 1549.44 421.1 1571.58 414.519C1609.79 403.158 1641.2 384.801 1674.45 365.371C1680.48 361.842 1686.73 358.193 1693 354.591C1716.07 341.383 1739.73 334.436 1764.83 327.085C1779.34 322.833 1794.33 318.439 1809.4 312.688C1831.37 304.299 1858.8 291.715 1875.99 268.95C1884.24 257.972 1889.21 244.884 1890.33 231.199C1891.39 216.602 1887.74 203.641 1879.72 193.622ZM1600.05 48.0098C1588.48 63.0365 1566.5 65.6057 1549.61 61.4007C1538.68 58.6795 1528.49 53.5937 1518.68 48.0098H1516.58C1526.96 53.9869 1537.74 59.5446 1549.38 62.4178C1566.86 66.7644 1589.66 63.9908 1601.39 48.0098H1600.05Z" fill="#F8AB20"/>
<path d="M1920.49 319.111V320.375C1903.13 331.962 1884.13 340.136 1867.54 346.475C1848.09 353.899 1828.74 359.583 1809.98 365.073C1777.57 374.573 1746.95 383.549 1717.18 400.626C1709.07 405.277 1701 409.996 1693.19 414.557C1658.41 434.89 1625.18 454.305 1587.59 468.745C1578.77 472.137 1569.7 475.257 1560.33 478.046C1536.59 485.103 1515.76 489.119 1496.64 490.331C1492.63 490.588 1488.67 490.713 1484.78 490.713C1466.1 490.713 1448.94 487.782 1433.62 481.963C1425.04 478.667 1416.95 474.221 1409.57 468.745C1399.37 461.262 1390.62 451.999 1383.72 441.402C1371.21 421.971 1367.14 400.505 1372.26 380.917C1375.22 369.603 1381.06 358.954 1386.72 348.656C1395.1 333.362 1403.04 318.917 1402.53 302.286C1401.88 280.732 1386.6 262.438 1372.33 246.966C1367.83 242.09 1363.2 237.146 1358.7 232.359C1328.2 199.804 1296.66 166.143 1279.12 124.817C1268.79 100.468 1264.87 73.1987 1268.11 48.037C1268.11 48.0284 1268.11 48.0193 1268.11 48.0107H1269.32C1265.99 73.9222 1270.37 101.491 1280.11 124.408C1297.55 165.577 1329.03 199.133 1359.46 231.64C1363.95 236.427 1368.58 241.377 1373.09 246.258C1387.49 261.862 1402.91 280.339 1403.57 302.255C1404.1 319.174 1395.71 334.416 1387.62 349.165C1382 359.405 1376.19 369.991 1373.26 381.179C1364.31 415.406 1383.9 449.099 1411.36 468.739C1418.34 473.773 1425.94 477.886 1433.98 480.977C1467.76 493.807 1507.81 492.559 1560.02 477.034C1568.46 474.523 1576.65 471.744 1584.66 468.739C1623.24 454.232 1657.15 434.418 1692.67 413.645C1700.47 409.083 1708.55 404.364 1716.66 399.714C1746.55 382.569 1777.22 373.577 1809.7 364.061C1828.41 358.571 1847.77 352.898 1867.17 345.489C1883.88 339.124 1903.05 330.856 1920.49 319.111Z" fill="#F8AB20"/>
<path d="M1906.57 70.1209C1895.37 88.3408 1884.8 105.549 1889.13 125.116C1892.83 141.868 1905.74 152.438 1920.49 162.625V163.899C1905.32 153.466 1891.94 142.696 1888.1 125.341C1883.68 105.365 1894.39 87.979 1905.67 69.5704C1909.98 62.5604 1915.11 55.6919 1917.9 48.0107C1917.9 47.9373 1917.11 49.9926 1917.9 48.0107H1919.07C1919.07 47.9583 1918.61 49.0593 1919.07 48.0107C1915.47 55.5713 1910.98 62.9431 1906.57 70.1209Z" fill="#F8AB20"/>
</g>
<g opacity="0.1">
<circle cx="110.056" cy="306.061" r="154.026" stroke="#816AB3" stroke-width="10.7657"/>
<circle cx="110.056" cy="306.061" r="154.026" stroke="#816AB3" stroke-width="10.7657"/>
<circle cx="110.056" cy="306.061" r="154.026" stroke="#816AB3" stroke-width="10.7657"/>
<circle cx="110.056" cy="306.061" r="154.026" stroke="#816AB3" stroke-width="10.7657"/>
<circle cx="110.052" cy="306.054" r="118.602" stroke="#816AB3" stroke-width="10.7657"/>
<circle cx="110.052" cy="306.054" r="118.602" stroke="#816AB3" stroke-width="10.7657"/>
<circle cx="110.052" cy="306.054" r="118.602" stroke="#816AB3" stroke-width="10.7657"/>
<circle cx="110.052" cy="306.054" r="118.602" stroke="#816AB3" stroke-width="10.7657"/>
<circle cx="110.053" cy="306.06" r="81.9563" stroke="#816AB3" stroke-width="10.7657"/>
<circle cx="110.053" cy="306.06" r="81.9563" stroke="#816AB3" stroke-width="10.7657"/>
<circle cx="110.053" cy="306.06" r="81.9563" stroke="#816AB3" stroke-width="10.7657"/>
<circle cx="110.053" cy="306.06" r="81.9563" stroke="#816AB3" stroke-width="10.7657"/>
<circle cx="110.055" cy="306.055" r="45.3105" stroke="#816AB3" stroke-width="10.7657"/>
<circle cx="110.055" cy="306.055" r="45.3105" stroke="#816AB3" stroke-width="10.7657"/>
<circle cx="110.055" cy="306.055" r="45.3105" stroke="#816AB3" stroke-width="10.7657"/>
<circle cx="110.055" cy="306.055" r="45.3105" stroke="#816AB3" stroke-width="10.7657"/>
<circle cx="110.055" cy="306.055" r="190.672" stroke="#816AB3" stroke-width="10.7657"/>
<circle cx="110.055" cy="306.055" r="190.672" stroke="#816AB3" stroke-width="10.7657"/>
<circle cx="110.055" cy="306.055" r="190.672" stroke="#816AB3" stroke-width="10.7657"/>
<circle cx="110.055" cy="306.055" r="190.672" stroke="#816AB3" stroke-width="10.7657"/>
</g>
</g>
<defs>
<clipPath id="clip0_7548_1759">
<rect width="600" height="1920" fill="white" transform="translate(0 600) rotate(-90)"/>
</clipPath>
<clipPath id="clip1_7548_1759">
<rect width="1945" height="602" fill="white" transform="translate(-13 -2)"/>
</clipPath>
</defs>
</svg>
