<svg width="110" height="108" viewBox="0 0 110 108" fill="none" xmlns="http://www.w3.org/2000/svg">
<rect x="0.746582" width="108.499" height="107.071" rx="53.5357" fill="#E6DDD5"/>
<g clip-path="url(#clip0_175_414)">
<path d="M32.6179 23.9175V83.1536H77.374V23.9175H32.6179ZM73.379 54.2915C73.379 54.2915 73.379 54.2901 73.379 54.2887V79.18H65.4885L61.4113 79.1786L48.018 79.18L43.9105 79.1786V79.1757H36.6115V68.3109H36.6129V63.8639H36.6115V38.1133C36.6115 38.1133 36.6086 38.1119 36.6072 38.1119V27.8911H73.3718V45.0061C73.3718 45.0061 73.3761 45.0132 73.3776 45.0161V45.8825C73.3776 45.8825 73.3776 45.8825 73.3776 45.8854V54.2915H73.379Z" fill="#816AB3"/>
<path d="M73.3777 45.8823V54.2884C68.3569 42.725 59.8965 33.3692 49.5071 27.8923H56.8046C56.8046 27.8923 56.8032 27.8923 56.8032 27.8909H57.5938C63.8381 32.3478 69.2167 38.1805 73.3719 45.0058V45.8723C73.3719 45.8723 73.3762 45.8794 73.3777 45.8823Z" fill="#816AB3"/>
<path d="M65.5432 76.9736C65.5432 77.7124 65.523 78.4497 65.4855 79.1784H61.4096C61.45 78.4497 61.4746 77.7153 61.4746 76.9736C61.4746 68.0826 58.5515 59.9476 53.7312 53.7119C53.5869 53.5254 53.4412 53.3418 53.2941 53.1581C53.2205 53.0678 53.1469 52.976 53.0719 52.8856C52.9233 52.7048 52.7732 52.5255 52.6203 52.3477C52.2394 51.9044 51.8484 51.4712 51.4488 51.0509C51.2078 50.7984 50.964 50.5488 50.7173 50.3049C46.7626 46.3974 41.9366 43.5772 36.6128 42.2675H36.6113V38.1132L36.6128 38.1074C53.0719 41.6291 65.5432 57.7127 65.5432 76.9736Z" fill="#816AB3"/>
<path d="M43.9106 79.1786V79.1758C43.1632 74.3731 40.3801 70.355 36.6145 68.3166V63.8697C42.6265 66.1749 47.1294 72.0521 48.0181 79.1786H43.912H43.9106Z" fill="#816AB3"/>
</g>
<defs>
<clipPath id="clip0_175_414">
<rect width="44.7561" height="59.236" fill="white" transform="translate(32.6179 23.9177)"/>
</clipPath>
</defs>
</svg>
